<?xml version="1.0" standalone="no"?>
<!DOCTYPE svg PUBLIC "-//W3C//DTD SVG 20010904//EN"
 "http://www.w3.org/TR/2001/REC-SVG-20010904/DTD/svg10.dtd">
<svg version="1.0" xmlns="http://www.w3.org/2000/svg"
 width="168.000000pt" height="185.000000pt" viewBox="0 0 168.000000 185.000000"
 preserveAspectRatio="xMidYMid meet">

<g transform="translate(0.000000,185.000000) scale(0.100000,-0.100000)"
fill="#000000" stroke="none">
<path d="M535 1650 l-25 -50 -200 0 -200 0 0 -100 0 -100 700 0 700 0 0 100 0
100 -200 0 -200 0 -25 50 -25 50 -250 0 -250 0 -25 -50z"/>
<path d="M210 700 l0 -600 600 0 600 0 0 600 0 600 -600 0 -600 0 0 -600z
m350 0 l0 -400 -50 0 -50 0 0 400 0 400 50 0 50 0 0 -400z m300 0 l0 -400 -50
0 -50 0 0 400 0 400 50 0 50 0 0 -400z m300 0 l0 -400 -50 0 -50 0 0 400 0
400 50 0 50 0 0 -400z"/>
</g>
</svg>
